<?xml version="1.0" encoding="utf-8"?>
<!-- Generator: Adobe Illustrator 18.0.0, SVG Export Plug-In . SVG Version: 6.00 Build 0)  -->
<!DOCTYPE svg PUBLIC "-//W3C//DTD SVG 1.1//EN" "http://www.w3.org/Graphics/SVG/1.1/DTD/svg11.dtd">
<svg version="1.1" id="Layer_1" xmlns="http://www.w3.org/2000/svg" xmlns:xlink="http://www.w3.org/1999/xlink" x="0px" y="0px"
	 viewBox="0 148 512 203.6" enable-background="new 0 148 512 203.6" xml:space="preserve">
<path fill="#FFFFFF" d="M222.7,269.9h-30.1c-6.4,0-11.9-0.9-16.4-2.5c-4.7-1.7-8.4-4.3-11.1-7.7c-3-3.7-4.8-8.4-5.2-13.9
	c-0.6-5.5,0.1-12,1.9-19.3c4.4-17.2,11.3-29.5,20.6-36.8c4.2-3.3,9.2-5.8,14.8-7.4c5.4-1.6,11.7-2.4,18.6-2.4h29.6h2.1l-0.6,2
	l-3.6,14.6l-0.6,2h-2h-29.3c-3.1,0-5.8,0.4-8.2,1.1c-2.4,0.8-4.5,1.9-6.3,3.3c-1.8,1.5-3.4,3.4-4.8,5.7c-1.1,1.8-2,4-2.8,6.4h47.1h2
	l-0.5,2.1l-3.7,14.6l-0.5,2.1h-2.1h-47.5c-0.6,2.9-0.9,5.4-0.7,7.5c0.2,2.5,1,4.5,2.2,6l0,0c1,1.2,2.6,2.2,4.6,2.9s4.6,1,7.7,1h29.3
	h2.1l-0.6,2l-3.6,14.6l-0.6,2h-1.8V269.9z M331.7,209.9c-1.5,6-4,11.2-7.3,15.4c-3.4,4.4-7.7,7.7-13,10.2l0,0
	c-3.2,1.4-6.6,2.6-10.3,3.3c-3.5,0.7-7.4,1-11.5,1h-2.2c-0.3,0-0.6,0-0.9,0c-0.2-0.1-0.4-0.1-0.6-0.1h-19.7l-7.1,28.1l-0.6,2h-2H239
	h-2l0.5-2.1l21.8-86l0.5-2h2h38.8c13.9,0,23.2,2.4,28,7.1l0,0c2.4,2.5,3.9,5.6,4.5,9.5C333.4,200.3,333,204.8,331.7,209.9
	L331.7,209.9z M308.1,209.8c0.6-2.1,0.7-3.9,0.5-5.3c-0.2-1.2-0.8-2.3-1.6-3c-1-0.8-2.5-1.3-4.4-1.8c-2-0.4-4.4-0.6-7.3-0.6h-18.7
	l-5.4,21.5h19.7c5.1,0,9.1-1,11.9-2.8C305.4,216.1,307.3,213.4,308.1,209.8L308.1,209.8z M419.9,209.9c-1.5,6-4,11.2-7.3,15.4
	c-3.4,4.4-7.8,7.7-13.1,10.2l0,0c-3.1,1.4-6.6,2.6-10.2,3.3s-7.4,1-11.5,1h-2.2c-0.3,0-0.6,0-0.9,0c-0.2-0.1-0.5-0.1-0.6-0.1h-19.7
	l-7.2,28.1l-0.5,2h-2.1H327h-2.1l0.5-2.1l21.8-86l0.5-2h2.1h38.8c13.8,0,23.2,2.4,27.9,7.1l0,0c2.5,2.5,3.9,5.6,4.5,9.5
	C421.6,200.3,421.2,204.8,419.9,209.9L419.9,209.9z M396.3,209.8c0.6-2.1,0.8-3.9,0.5-5.3c-0.2-1.2-0.7-2.3-1.5-3
	c-1-0.8-2.5-1.3-4.4-1.8c-2-0.4-4.5-0.6-7.3-0.6h-18.8l-5.4,21.5H379c5.1,0,9.1-1,11.9-2.8C393.6,216.1,395.4,213.4,396.3,209.8
	L396.3,209.8z M500.4,242.3c-2,8-5.2,14.1-9.8,18.4c-3.3,3.1-7.5,5.5-12.4,7.1c-4.8,1.4-10.2,2.2-16.4,2.2h-47.6h-2l0.5-2.1l3.8-15
	l0.5-2h2.1h44.6c2.3,0,4.2-0.2,5.8-0.5c1.5-0.3,2.8-0.7,3.8-1.1l0,0c1.1-0.6,2-1.3,2.7-2.3c0.9-1,1.4-2.3,1.8-3.8
	c0.4-1.6,0.5-3.1,0.4-4.1s-0.5-1.8-1-2.4c-0.7-0.6-1.6-1-3-1.4c-1.4-0.3-3.1-0.5-5.2-0.5h-21.1c-4.9,0-9-0.5-12.4-1.5
	c-3.5-1-6.3-2.6-8.3-4.6l0,0c-2.2-2.3-3.5-5.2-4-8.7c-0.4-3.4-0.1-7.5,1.1-12.2c1.1-4.7,2.9-8.8,5.1-12.3c2.2-3.6,5-6.6,8.2-8.9
	c3.2-2.3,7-4,11.3-5.1l0,0c4.2-1.1,9-1.6,14.2-1.6H510h2.1l-0.6,2l-3.7,15.1l-0.6,2h-2h-44.1c-8.2,0-13.1,3.2-14.7,9.5
	c-0.4,1.3-0.4,2.5-0.2,3.3l0,0c0.1,0.9,0.6,1.6,1.1,2.2h0.1c0.7,0.7,1.5,1.1,2.6,1.5s2.6,0.5,4.1,0.5h23.7c4.3,0,8,0.3,11,0.9
	c3.1,0.7,5.5,1.5,7.3,2.8l0,0c3,2,4.7,5,5.4,8.9C502.2,232.2,501.8,236.8,500.4,242.3L500.4,242.3z"/>
<g>
	<path fill="#FFFFFF" d="M101.7,234.2c-0.6,0-1.3,0-1.9,0H6.2v-3.1h93.7c28.6,0.9,32.1-18.4,35.8-38.7c3.9-21.5,7.9-43.7,41.7-42
		H261v3.1h-83.7c-31.1-1.5-34.7,18.4-38.5,39.4C135,213.2,131.2,234.2,101.7,234.2z"/>
</g>
<g>
	<path fill="#FFFFFF" d="M141.9,288.9c-6.8-0.4-11.4-2.4-14.2-6.1c-5.3-7.1-2.5-18.7,0.1-30c2.4-10.1,4.8-20.5,0.7-25.4
		c-2.2-2.7-6.3-3.8-12.5-3.4H72.3v-3.1H116c7.1-0.4,12.1,1.1,15,4.5c5.2,6.1,2.6,16.8,0,28.1c-2.5,10.6-5.1,21.5-0.7,27.4
		c2.2,3,6.1,4.5,11.8,4.9l91-0.2v3.1L141.9,288.9z"/>
</g>
<g>
	<path fill="#FFFFFF" d="M65.5,214.8c-2.7,0-5.6-0.1-8.6-0.2H38.4v-3.1H57c45.4,2.2,49-12.1,52.8-27.1c3.5-13.8,7.1-28,42.5-28.1
		l106.8,1.1v3.1l-107-1.1c-32.9,0.1-36.1,12.6-39.4,25.8C109,199.8,105.2,214.8,65.5,214.8z"/>
</g>
<g>
	<path fill="#FFFFFF" d="M125.7,295.9c-10.1,0-16.7-2.1-20.4-6.5c-5-6-3.3-14.9-1.7-23.4c1.4-7.7,2.8-15.1-0.8-19.3
		c-2.5-2.9-7.1-4.3-14.4-4.3H47v-3.1h41.4c8.2,0,13.7,1.7,16.8,5.5c4.5,5.4,2.9,13.8,1.4,21.9c-1.5,7.9-3,16,1.1,20.9
		c3,3.6,8.9,5.4,18,5.4l106-0.8v3.1L125.7,295.9z"/>
</g>
<g>
	<path fill="#FFFFFF" d="M26.8,202.9l-2.6-1.8c11.9-17.5,30.2-37.6,66.6-37.2h167.3v3.1H90.8C55.9,166.6,38.3,186,26.8,202.9z"/>
</g>
<g>
	<rect x="55.7" y="279.1" fill="#FFFFFF" width="178.9" height="3.1"/>
</g>
<g>
	<path fill="#FFFFFF" d="M24,200.8c1.8,0,3.2,1.4,3.2,3.2s-1.4,3.2-3.2,3.2c-1.7,0-3.2-1.4-3.2-3.2S22.3,200.8,24,200.8L24,200.8z"
		/>
	<path fill="#FFFFFF" d="M24,207.4c-1.8,0-3.4-1.6-3.4-3.4s1.6-3.4,3.4-3.4c1.9,0,3.4,1.5,3.4,3.4S25.9,207.4,24,207.4z M24,200.9
		c-1.7,0-3.1,1.4-3.1,3.1s1.4,3.1,3.1,3.1s3.1-1.4,3.1-3.1S25.7,200.9,24,200.9z"/>
</g>
<g>
	<path fill="#FFFFFF" d="M35.9,209.7c1.8,0,3.2,1.5,3.2,3.2c0,1.8-1.4,3.2-3.2,3.2s-3.2-1.4-3.2-3.2
		C32.7,211.2,34.1,209.7,35.9,209.7L35.9,209.7z"/>
	<path fill="#FFFFFF" d="M35.9,216.4c-1.9,0-3.4-1.5-3.4-3.4c0-1.8,1.6-3.4,3.4-3.4c1.8,0,3.4,1.6,3.4,3.4
		C39.3,214.9,37.8,216.4,35.9,216.4z M35.9,209.9c-1.7,0-3.1,1.4-3.1,3.1s1.4,3.1,3.1,3.1c1.7,0,3.1-1.4,3.1-3.1
		S37.6,209.9,35.9,209.9z"/>
</g>
<g>
	<path fill="#FFFFFF" d="M70.7,218.8c1.8,0,3.2,1.4,3.2,3.2c0,1.7-1.4,3.2-3.2,3.2s-3.2-1.5-3.2-3.2
		C67.4,220.2,68.8,218.8,70.7,218.8L70.7,218.8z"/>
	<path fill="#FFFFFF" d="M70.7,225.4c-1.8,0-3.4-1.6-3.4-3.4c0-1.9,1.5-3.4,3.4-3.4s3.4,1.5,3.4,3.4S72.5,225.4,70.7,225.4z
		 M70.7,218.9c-1.7,0-3.1,1.4-3.1,3.1s1.4,3.1,3.1,3.1s3.1-1.4,3.1-3.1C73.7,220.3,72.4,218.9,70.7,218.9z"/>
</g>
<g>
	<path fill="#FFFFFF" d="M3.4,229.4c1.7,0,3.2,1.5,3.2,3.2c0,1.8-1.5,3.2-3.2,3.2c-1.8,0-3.2-1.4-3.2-3.2
		C0.2,230.9,1.6,229.4,3.4,229.4L3.4,229.4z"/>
	<path fill="#FFFFFF" d="M3.4,236c-1.9,0-3.4-1.5-3.4-3.4c0-1.8,1.6-3.4,3.4-3.4s3.4,1.6,3.4,3.4C6.8,234.5,5.2,236,3.4,236z
		 M3.4,229.5c-1.7,0-3.1,1.4-3.1,3.1c0,1.7,1.4,3.1,3.1,3.1s3.1-1.4,3.1-3.1C6.5,231,5,229.5,3.4,229.5z"/>
</g>
<g>
	<path fill="#FFFFFF" d="M44.6,237.4c1.8,0,3.2,1.4,3.2,3.2c0,1.8-1.4,3.2-3.2,3.2s-3.2-1.4-3.2-3.2
		C41.4,238.8,42.8,237.4,44.6,237.4L44.6,237.4z"/>
	<path fill="#FFFFFF" d="M44.6,244c-1.9,0-3.4-1.5-3.4-3.4c0-1.9,1.5-3.4,3.4-3.4s3.4,1.5,3.4,3.4C48,242.5,46.5,244,44.6,244z
		 M44.6,237.5c-1.7,0-3.1,1.4-3.1,3.1c0,1.7,1.4,3.1,3.1,3.1c1.7,0,3.1-1.4,3.1-3.1C47.7,238.9,46.3,237.5,44.6,237.5z"/>
</g>
<g>
	<path fill="#FFFFFF" d="M52.5,277.6c1.8,0,3.2,1.4,3.2,3.1c0,1.8-1.4,3.2-3.2,3.2s-3.2-1.4-3.2-3.2C49.3,279,50.7,277.6,52.5,277.6
		L52.5,277.6z"/>
	<path fill="#FFFFFF" d="M52.5,284.1c-1.9,0-3.4-1.5-3.4-3.4c0-1.8,1.5-3.3,3.4-3.3s3.4,1.5,3.4,3.3
		C55.9,282.6,54.4,284.1,52.5,284.1z M52.5,277.7c-1.7,0-3.1,1.3-3.1,3c0,1.7,1.4,3.1,3.1,3.1c1.7,0,3.1-1.4,3.1-3.1
		C55.6,279.1,54.2,277.7,52.5,277.7z"/>
</g>
<rect x="263.8" y="150.8" fill="#FFFFFF" width="7.1" height="2.4"/>
<rect x="273.5" y="150.8" fill="#FFFFFF" width="7.1" height="2.4"/>
<rect x="283.3" y="150.8" fill="#FFFFFF" width="7" height="2.4"/>
<rect x="293.6" y="150.8" fill="#FFFFFF" width="5.8" height="2.4"/>
<rect x="303.4" y="150.8" fill="#FFFFFF" width="5.6" height="2.4"/>
<rect x="313.7" y="150.8" fill="#FFFFFF" width="4.8" height="2.4"/>
<rect x="324.2" y="150.8" fill="#FFFFFF" width="3.1" height="2.4"/>
<rect x="262.6" y="157.9" fill="#FFFFFF" width="7" height="2.4"/>
<rect x="272.3" y="157.9" fill="#FFFFFF" width="7" height="2.4"/>
<rect x="282.1" y="157.9" fill="#FFFFFF" width="7" height="2.4"/>
<rect x="292.5" y="157.9" fill="#FFFFFF" width="5.7" height="2.4"/>
<rect x="302.3" y="157.9" fill="#FFFFFF" width="5.6" height="2.4"/>
<rect x="312.4" y="157.9" fill="#FFFFFF" width="4.9" height="2.4"/>
<rect x="323" y="157.9" fill="#FFFFFF" width="3.1" height="2.4"/>
<rect x="260.7" y="164.6" fill="#FFFFFF" width="7" height="2.4"/>
<rect x="270.4" y="164.6" fill="#FFFFFF" width="7" height="2.4"/>
<rect x="280.2" y="164.6" fill="#FFFFFF" width="7.1" height="2.4"/>
<rect x="290.6" y="164.6" fill="#FFFFFF" width="5.8" height="2.4"/>
<rect x="300.4" y="164.6" fill="#FFFFFF" width="5.6" height="2.4"/>
<rect x="310.5" y="164.6" fill="#FFFFFF" width="4.9" height="2.4"/>
<rect x="321.2" y="164.6" fill="#FFFFFF" width="3.1" height="2.4"/>
<rect x="237.1" y="279.5" fill="#FFFFFF" width="7" height="2.5"/>
<rect x="246.9" y="279.5" fill="#FFFFFF" width="7.1" height="2.5"/>
<rect x="256.6" y="279.5" fill="#FFFFFF" width="7.1" height="2.5"/>
<rect x="267" y="279.5" fill="#FFFFFF" width="5.8" height="2.5"/>
<rect x="276.8" y="279.5" fill="#FFFFFF" width="5.6" height="2.5"/>
<rect x="286.9" y="279.5" fill="#FFFFFF" width="4.9" height="2.5"/>
<rect x="297.6" y="279.5" fill="#FFFFFF" width="3.1" height="2.5"/>
<rect x="236.1" y="285.7" fill="#FFFFFF" width="7" height="2.5"/>
<rect x="245.8" y="285.7" fill="#FFFFFF" width="7" height="2.5"/>
<rect x="255.6" y="285.7" fill="#FFFFFF" width="7.1" height="2.5"/>
<rect x="266" y="285.7" fill="#FFFFFF" width="5.7" height="2.5"/>
<rect x="275.8" y="285.7" fill="#FFFFFF" width="5.6" height="2.5"/>
<rect x="285.9" y="285.7" fill="#FFFFFF" width="4.9" height="2.5"/>
<rect x="296.6" y="285.7" fill="#FFFFFF" width="3.1" height="2.5"/>
<rect x="234.8" y="293.1" fill="#FFFFFF" width="7" height="2.4"/>
<rect x="244.5" y="293.1" fill="#FFFFFF" width="7" height="2.4"/>
<rect x="254.2" y="293.1" fill="#FFFFFF" width="7" height="2.4"/>
<rect x="264.6" y="293.1" fill="#FFFFFF" width="5.7" height="2.4"/>
<rect x="274.4" y="293.1" fill="#FFFFFF" width="5.6" height="2.4"/>
<rect x="284.6" y="293.1" fill="#FFFFFF" width="4.9" height="2.4"/>
<rect x="295.1" y="293.1" fill="#FFFFFF" width="3.1" height="2.4"/>
<g enable-background="new    ">
	<path fill="#FFFFFF" d="M127.7,349.6V342l-7.4-10.4h3.1l3.8,5.4c0.7,1,1.3,2,1.9,3c0.6-0.9,1.3-2,2.1-3.2l3.7-5.3h3l-7.6,10.4v7.6
		H127.7z"/>
	<path fill="#FFFFFF" d="M139.4,340.8c0-3,0.9-5.3,2.6-7c1.7-1.7,3.9-2.5,6.6-2.5c1.8,0,3.4,0.4,4.8,1.2c1.4,0.8,2.5,1.9,3.2,3.3
		c0.7,1.4,1.1,3,1.1,4.8c0,1.8-0.4,3.5-1.2,4.9c-0.8,1.4-1.9,2.5-3.3,3.3c-1.4,0.7-3,1.1-4.7,1.1c-1.8,0-3.4-0.4-4.8-1.2
		s-2.5-1.9-3.2-3.3C139.8,343.9,139.4,342.4,139.4,340.8z M142,340.9c0,2.2,0.6,3.9,1.9,5.1c1.2,1.2,2.8,1.9,4.7,1.9
		c1.9,0,3.5-0.6,4.7-1.9c1.2-1.3,1.8-3,1.8-5.4c0-1.5-0.3-2.7-0.8-3.8c-0.5-1.1-1.3-1.9-2.3-2.5c-1-0.6-2.2-0.9-3.4-0.9
		c-1.8,0-3.3,0.6-4.6,1.7C142.7,336.2,142,338.2,142,340.9z"/>
	<path fill="#FFFFFF" d="M173.6,331.6h2.5V342c0,1.8-0.2,3.2-0.7,4.3c-0.4,1.1-1.2,1.9-2.4,2.6c-1.1,0.7-2.6,1-4.5,1
		c-1.8,0-3.3-0.3-4.4-0.9c-1.1-0.6-2-1.4-2.4-2.5c-0.5-1.1-0.7-2.6-0.7-4.5v-10.4h2.5V342c0,1.6,0.2,2.7,0.5,3.5
		c0.3,0.7,0.8,1.3,1.6,1.7s1.7,0.6,2.8,0.6c1.9,0,3.2-0.4,4-1.2s1.2-2.3,1.2-4.6V331.6z"/>
	<path fill="#FFFFFF" d="M180.4,349.6v-18h8.5c1.7,0,3,0.2,3.9,0.5c0.9,0.3,1.6,0.9,2.1,1.7c0.5,0.8,0.8,1.7,0.8,2.7
		c0,1.3-0.4,2.4-1.3,3.2c-0.9,0.9-2.2,1.4-4.1,1.7c0.7,0.3,1.2,0.6,1.5,0.9c0.7,0.6,1.4,1.4,2.1,2.4l3.3,4.9h-3.2l-2.5-3.7
		c-0.7-1.1-1.4-1.9-1.8-2.5c-0.5-0.6-0.9-1-1.3-1.2c-0.4-0.2-0.8-0.4-1.2-0.5c-0.3-0.1-0.8-0.1-1.4-0.1h-2.9v8H180.4z M182.9,339.5
		h5.5c1.2,0,2.1-0.1,2.7-0.3c0.7-0.2,1.2-0.6,1.5-1.1c0.3-0.5,0.5-1,0.5-1.6c0-0.9-0.3-1.5-1-2.1c-0.7-0.5-1.7-0.8-3.1-0.8h-6.1
		V339.5z"/>
	<path fill="#FFFFFF" d="M207.2,349.6v-18h8.5c1.7,0,3,0.2,3.9,0.5c0.9,0.3,1.6,0.9,2.1,1.7c0.5,0.8,0.8,1.7,0.8,2.7
		c0,1.3-0.4,2.4-1.3,3.2c-0.9,0.9-2.2,1.4-4.1,1.7c0.7,0.3,1.2,0.6,1.5,0.9c0.7,0.6,1.4,1.4,2.1,2.4l3.3,4.9h-3.2l-2.5-3.7
		c-0.7-1.1-1.4-1.9-1.8-2.5c-0.5-0.6-0.9-1-1.3-1.2c-0.4-0.2-0.8-0.4-1.2-0.5c-0.3-0.1-0.8-0.1-1.4-0.1h-2.9v8H207.2z M209.7,339.5
		h5.5c1.2,0,2.1-0.1,2.7-0.3c0.7-0.2,1.2-0.6,1.5-1.1c0.3-0.5,0.5-1,0.5-1.6c0-0.9-0.3-1.5-1-2.1c-0.7-0.5-1.7-0.8-3.1-0.8h-6.1
		V339.5z"/>
	<path fill="#FFFFFF" d="M239,331.6h2.5V342c0,1.8-0.2,3.2-0.7,4.3c-0.4,1.1-1.2,1.9-2.4,2.6c-1.1,0.7-2.6,1-4.5,1
		c-1.8,0-3.3-0.3-4.4-0.9c-1.1-0.6-2-1.4-2.4-2.5c-0.5-1.1-0.7-2.6-0.7-4.5v-10.4h2.5V342c0,1.6,0.2,2.7,0.5,3.5
		c0.3,0.7,0.8,1.3,1.6,1.7s1.7,0.6,2.8,0.6c1.9,0,3.2-0.4,4-1.2s1.2-2.3,1.2-4.6V331.6z"/>
	<path fill="#FFFFFF" d="M245.8,349.6v-18h2.6l10.1,14.1v-14.1h2.4v18h-2.6l-10.1-14.1v14.1H245.8z"/>
	<path fill="#FFFFFF" d="M265.1,349.6v-18h2.6l10.1,14.1v-14.1h2.4v18h-2.6l-10.1-14.1v14.1H265.1z"/>
	<path fill="#FFFFFF" d="M284.9,349.6v-18h2.5v18H284.9z"/>
	<path fill="#FFFFFF" d="M291.9,349.6v-18h2.6l10.1,14.1v-14.1h2.4v18h-2.6l-10.1-14.1v14.1H291.9z"/>
	<path fill="#FFFFFF" d="M320.2,342.5v-2.1l8.1,0v6.7c-1.2,0.9-2.5,1.6-3.9,2.1c-1.3,0.5-2.7,0.7-4.1,0.7c-1.9,0-3.6-0.4-5.1-1.1
		c-1.5-0.8-2.7-1.8-3.5-3.3s-1.2-3-1.2-4.8c0-1.7,0.4-3.4,1.2-4.9c0.8-1.5,1.9-2.6,3.4-3.4c1.5-0.7,3.2-1.1,5.1-1.1
		c1.4,0,2.6,0.2,3.8,0.6c1.1,0.4,2,1,2.6,1.8c0.6,0.8,1.1,1.7,1.5,2.9l-2.3,0.6c-0.3-0.9-0.6-1.6-1.1-2.2s-1-0.9-1.8-1.3
		s-1.7-0.5-2.6-0.5c-1.2,0-2.2,0.2-3,0.5s-1.5,0.8-2,1.3c-0.5,0.5-0.9,1.1-1.2,1.8c-0.5,1.1-0.7,2.3-0.7,3.6c0,1.6,0.3,2.9,0.9,4
		s1.4,1.9,2.6,2.4c1.1,0.5,2.3,0.8,3.6,0.8c1.1,0,2.2-0.2,3.2-0.6s1.8-0.8,2.4-1.3v-3.3H320.2z"/>
	<path fill="#FFFFFF" d="M339.5,349.6v-18h7.2c1.3,0,2.2,0.1,2.9,0.2c0.9,0.1,1.7,0.4,2.4,0.8c0.6,0.4,1.1,1,1.5,1.7
		c0.4,0.7,0.6,1.6,0.6,2.5c0,1.5-0.5,2.8-1.6,3.9c-1,1.1-2.9,1.6-5.6,1.6H342v7.3H339.5z M342,340.2h5c1.6,0,2.8-0.3,3.5-0.9
		c0.7-0.6,1-1.4,1-2.4c0-0.8-0.2-1.4-0.6-1.9c-0.4-0.5-0.9-0.9-1.6-1.1c-0.4-0.1-1.2-0.2-2.4-0.2H342V340.2z"/>
	<path fill="#FFFFFF" d="M353.3,349.6l7.4-18h2.7l7.8,18h-2.9l-2.2-5.4h-8l-2.1,5.4H353.3z M358.8,342.2h6.5l-2-5
		c-0.6-1.5-1.1-2.8-1.4-3.7c-0.2,1.2-0.6,2.3-1,3.4L358.8,342.2z"/>
	<path fill="#FFFFFF" d="M373.3,349.6v-18h8.5c1.7,0,3,0.2,3.9,0.5c0.9,0.3,1.6,0.9,2.1,1.7c0.5,0.8,0.8,1.7,0.8,2.7
		c0,1.3-0.4,2.4-1.3,3.2c-0.9,0.9-2.2,1.4-4.1,1.7c0.7,0.3,1.2,0.6,1.5,0.9c0.7,0.6,1.4,1.4,2.1,2.4l3.3,4.9H387l-2.5-3.7
		c-0.7-1.1-1.4-1.9-1.8-2.5s-0.9-1-1.3-1.2c-0.4-0.2-0.8-0.4-1.2-0.5c-0.3-0.1-0.8-0.1-1.4-0.1h-2.9v8H373.3z M375.8,339.5h5.5
		c1.2,0,2.1-0.1,2.7-0.3c0.7-0.2,1.2-0.6,1.5-1.1c0.3-0.5,0.5-1,0.5-1.6c0-0.9-0.3-1.5-1-2.1c-0.7-0.5-1.7-0.8-3.1-0.8h-6.1V339.5z"
		/>
	<path fill="#FFFFFF" d="M396.9,349.6v-15.9h-6.3v-2.1h15.2v2.1h-6.3v15.9H396.9z"/>
	<path fill="#FFFFFF" d="M408.4,349.6v-18h2.6l10.1,14.1v-14.1h2.4v18h-2.6l-10.1-14.1v14.1H408.4z"/>
	<path fill="#FFFFFF" d="M427.8,349.6v-18h13.9v2.1h-11.3v5.5h10.6v2.1h-10.6v6.1h11.8v2.1H427.8z"/>
	<path fill="#FFFFFF" d="M445.7,349.6v-18h8.5c1.7,0,3,0.2,3.9,0.5c0.9,0.3,1.6,0.9,2.1,1.7c0.5,0.8,0.8,1.7,0.8,2.7
		c0,1.3-0.4,2.4-1.3,3.2c-0.9,0.9-2.2,1.4-4.1,1.7c0.7,0.3,1.2,0.6,1.5,0.9c0.7,0.6,1.4,1.4,2.1,2.4l3.3,4.9h-3.2l-2.5-3.7
		c-0.7-1.1-1.4-1.9-1.8-2.5s-0.9-1-1.3-1.2c-0.4-0.2-0.8-0.4-1.2-0.5c-0.3-0.1-0.8-0.1-1.4-0.1h-2.9v8H445.7z M448.2,339.5h5.5
		c1.2,0,2.1-0.1,2.7-0.3c0.7-0.2,1.2-0.6,1.5-1.1c0.3-0.5,0.5-1,0.5-1.6c0-0.9-0.3-1.5-1-2.1c-0.7-0.5-1.7-0.8-3.1-0.8h-6.1V339.5z"
		/>
</g>
<g enable-background="new    ">
	<path fill="#FFFFFF" d="M319.7,290.4l2.1-0.2c0.1,0.8,0.3,1.5,0.7,2c0.4,0.5,0.9,0.9,1.7,1.3s1.7,0.5,2.6,0.5
		c0.9,0,1.6-0.1,2.3-0.4c0.7-0.2,1.2-0.6,1.5-1c0.3-0.4,0.5-0.9,0.5-1.4c0-0.5-0.2-0.9-0.5-1.3c-0.3-0.4-0.8-0.7-1.5-1
		c-0.5-0.2-1.5-0.4-3.1-0.8c-1.6-0.4-2.7-0.7-3.3-1c-0.8-0.4-1.4-0.9-1.8-1.5c-0.4-0.6-0.6-1.3-0.6-2c0-0.8,0.2-1.6,0.7-2.3
		c0.5-0.7,1.2-1.2,2.2-1.6s2-0.5,3.1-0.5c1.3,0,2.4,0.2,3.4,0.6c1,0.4,1.7,1,2.2,1.7c0.5,0.7,0.8,1.6,0.8,2.5l-2.2,0.2
		c-0.1-1-0.5-1.8-1.2-2.3c-0.7-0.5-1.7-0.8-3-0.8c-1.4,0-2.4,0.2-3,0.7c-0.6,0.5-0.9,1-0.9,1.7c0,0.6,0.2,1.1,0.7,1.4
		c0.4,0.4,1.6,0.8,3.4,1.1c1.8,0.4,3.1,0.7,3.8,1c1,0.4,1.7,1,2.2,1.6c0.5,0.7,0.7,1.4,0.7,2.3c0,0.9-0.3,1.7-0.8,2.4
		c-0.5,0.8-1.3,1.3-2.3,1.8c-1,0.4-2.1,0.6-3.3,0.6c-1.6,0-2.9-0.2-3.9-0.6s-1.9-1.1-2.5-1.9C320,292.4,319.7,291.5,319.7,290.4z"/>
	<path fill="#FFFFFF" d="M338.4,295.5v-16.1h3.4l4.1,11.4c0.4,1.1,0.6,1.9,0.8,2.4c0.2-0.6,0.5-1.4,0.9-2.6l4.1-11.2h3.1v16.1h-2.2
		v-13.5l-5,13.5h-2l-5-13.7v13.7H338.4z"/>
	<path fill="#FFFFFF" d="M358.6,295.5l6.6-16.1h2.4l7,16.1H372l-2-4.9h-7.2l-1.9,4.9H358.6z M363.5,288.9h5.8l-1.8-4.5
		c-0.5-1.4-1-2.5-1.2-3.3c-0.2,1-0.5,2.1-0.9,3.1L363.5,288.9z"/>
	<path fill="#FFFFFF" d="M378.5,295.5v-16.1h7.6c1.5,0,2.7,0.1,3.5,0.4s1.4,0.8,1.9,1.5c0.5,0.7,0.7,1.5,0.7,2.4
		c0,1.1-0.4,2.1-1.2,2.9c-0.8,0.8-2,1.3-3.7,1.5c0.6,0.3,1.1,0.5,1.4,0.8c0.7,0.6,1.3,1.3,1.9,2.1l3,4.4h-2.9l-2.3-3.4
		c-0.7-1-1.2-1.7-1.6-2.2c-0.4-0.5-0.8-0.9-1.2-1.1c-0.3-0.2-0.7-0.3-1-0.4c-0.3-0.1-0.7-0.1-1.3-0.1h-2.6v7.2H378.5z M380.8,286.6
		h4.9c1,0,1.9-0.1,2.4-0.3c0.6-0.2,1-0.5,1.3-1s0.5-0.9,0.5-1.4c0-0.8-0.3-1.4-0.9-1.9c-0.6-0.5-1.5-0.7-2.8-0.7h-5.4V286.6z"/>
	<path fill="#FFFFFF" d="M401.7,295.5v-14.2h-5.7v-1.9h13.6v1.9H404v14.2H401.7z"/>
	<path fill="#FFFFFF" d="M422.3,295.5v-16.1h12.4v1.9h-10.1v4.9h9.5v1.9h-9.5v5.5h10.5v1.9H422.3z"/>
	<path fill="#FFFFFF" d="M440.3,295.5v-16.1h7.6c1.5,0,2.7,0.1,3.5,0.4s1.4,0.8,1.9,1.5c0.5,0.7,0.7,1.5,0.7,2.4
		c0,1.1-0.4,2.1-1.2,2.9c-0.8,0.8-2,1.3-3.7,1.5c0.6,0.3,1.1,0.5,1.4,0.8c0.7,0.6,1.3,1.3,1.9,2.1l3,4.4h-2.9l-2.3-3.4
		c-0.7-1-1.2-1.7-1.6-2.2c-0.4-0.5-0.8-0.9-1.2-1.1c-0.3-0.2-0.7-0.3-1-0.4c-0.3-0.1-0.7-0.1-1.3-0.1h-2.6v7.2H440.3z M442.6,286.6
		h4.9c1,0,1.9-0.1,2.4-0.3c0.6-0.2,1-0.5,1.3-1s0.5-0.9,0.5-1.4c0-0.8-0.3-1.4-0.9-1.9c-0.6-0.5-1.5-0.7-2.8-0.7h-5.4V286.6z"/>
	<path fill="#FFFFFF" d="M459.6,295.5v-16.1h6.5c1.1,0,2,0.1,2.6,0.2c0.8,0.1,1.5,0.4,2.1,0.8c0.6,0.4,1,0.9,1.4,1.6
		c0.3,0.7,0.5,1.4,0.5,2.2c0,1.4-0.5,2.5-1.4,3.5c-0.9,0.9-2.6,1.4-5,1.4h-4.4v6.5H459.6z M461.9,287.1h4.4c1.5,0,2.5-0.3,3.1-0.8
		c0.6-0.5,0.9-1.2,0.9-2.2c0-0.7-0.2-1.3-0.5-1.7s-0.8-0.8-1.4-1c-0.4-0.1-1.1-0.1-2.1-0.1h-4.4V287.1z"/>
</g>
</svg>
